<svg xmlns="http://www.w3.org/2000/svg" xmlns:xlink="http://www.w3.org/1999/xlink" id="Layer_1" x="0" y="0" enable-background="new 0 0 61.5 61.5" version="1.1" viewBox="0 0 61.5 61.5" xml:space="preserve"><circle cx="30.7" cy="30.8" r="30.7" fill="#2D3333" fill-rule="evenodd" clip-rule="evenodd"/><circle cx="30.7" cy="30.8" r="25.1" fill="#A41E22"/><g><defs><circle id="SVGID_1_" cx="30.8" cy="30.7" r="30.7"/></defs><clipPath id="SVGID_2_"><use overflow="visible" xlink:href="#SVGID_1_"/></clipPath><linearGradient id="SVGID_3_" x1="276.673" x2="330.201" y1="-12.996" y2="-12.996" gradientTransform="matrix(-0.4255 -0.4255 0.7071 -0.7071 157.9615 140.41)" gradientUnits="userSpaceOnUse"><stop offset="0" style="stop-color:#fff;stop-opacity:.05"/><stop offset="1" style="stop-color:#fbfbfb;stop-opacity:0"/></linearGradient><polygon fill="url(#SVGID_3_)" points="31.6 -14.3 54.4 8.5 7.7 55.2 -15.1 32.5" clip-path="url(#SVGID_2_)"/></g><path fill="none" stroke="#481918" stroke-miterlimit="10" d="M13,28.2c2,0,2,6.7,4,6.7c2,0,2-10.2,4-10.2c2,0,2,13.6,4,13.6	c2,0,2-10.2,4-10.2c2,0,2,6.7,4,6.7c2,0,2-13.6,4-13.6c2,0,2,20.4,4,20.4c2,0,2-13.6,4-13.6s2,6.7,4,6.7"/><path fill="none" stroke="#FFF" stroke-miterlimit="10" stroke-width="2" d="M11.9,27.3c2,0,2,6.7,4,6.7c2,0,2-10.2,4-10.2	c2,0,2,13.6,4,13.6c2,0,2-10.2,4-10.2c2,0,2,6.7,4,6.7c2,0,2-13.6,4-13.6c2,0,2,20.4,4,20.4c2,0,2-13.6,4-13.6c2,0,2,6.7,4,6.7"/></svg>