<svg xmlns="http://www.w3.org/2000/svg" xmlns:xlink="http://www.w3.org/1999/xlink" id="Layer_1" x="0" y="0" enable-background="new 0 0 61.5 61.5" version="1.1" viewBox="0 0 61.5 61.5" xml:space="preserve"><circle cx="30.7" cy="30.8" r="30.7" fill="#2D3333" fill-rule="evenodd" clip-rule="evenodd"/><circle cx="30.7" cy="30.8" r="25.1" fill="#A31E22"/><ellipse cx="30.4" cy="31.6" fill="#D55136" rx="16.6" ry="16.6" transform="matrix(0.9999 1.491686e-02 -1.491686e-02 0.9999 0.4747 -0.45)"/><path fill="#A31E22" d="M30.3,37.7c-9.2-0.1-16.6-2.3-16.5-4.9c0-2.6,7.5-4.5,16.7-4.4c9.2,0.1,16.6,2.3,16.5,4.9	C46.9,35.8,39.5,37.8,30.3,37.7z"/><g><path fill="#481817" d="M30.3,37.7c-8.5-0.1-15.4-2-16.4-4.3c0.9,8.2,7.8,14.7,16.2,14.8c8.5,0.1,15.6-6.1,16.7-14.3 C45.8,36.1,38.8,37.8,30.3,37.7z"/><path fill="#4D4E4E" d="M13.9,33.4"/><path fill="#4D4E4E" d="M46.8,33.9"/></g><g><polygon fill="none" stroke="#FFF" stroke-miterlimit="10" stroke-width=".789" points="28.8 32.1 29 16.4 45.7 32.4"/><rect width="4" height="3.4" x="28.8" y="28.8" fill="none" stroke="#FFF" stroke-miterlimit="10" stroke-width=".789" transform="matrix(0.9999 1.491686e-02 -1.491686e-02 0.9999 0.458 -0.4559)"/></g><g><defs><circle id="SVGID_1_" cx="30.8" cy="30.7" r="30.7"/></defs><clipPath id="SVGID_2_"><use overflow="visible" xlink:href="#SVGID_1_"/></clipPath><linearGradient id="SVGID_3_" x1="292.558" x2="346.087" y1="-18.16" y2="-18.16" gradientTransform="matrix(-0.4255 -0.4255 0.7071 -0.7071 168.3727 143.5177)" gradientUnits="userSpaceOnUse"><stop offset="0" style="stop-color:#fff;stop-opacity:.05"/><stop offset="1" style="stop-color:#fbfbfb;stop-opacity:0"/></linearGradient><polygon fill="url(#SVGID_3_)" points="31.6 -14.3 54.4 8.5 7.7 55.2 -15.1 32.5" clip-path="url(#SVGID_2_)"/></g></svg>