<svg xmlns="http://www.w3.org/2000/svg" xmlns:xlink="http://www.w3.org/1999/xlink" id="Layer_1" x="0" y="0" enable-background="new 0 0 61.5 61.5" version="1.1" viewBox="0 0 61.5 61.5" xml:space="preserve"><circle cx="30.7" cy="30.8" r="30.7" fill="#2D3333" fill-rule="evenodd" clip-rule="evenodd"/><circle cx="30.7" cy="30.8" r="25.1" fill="#A41C12"/><g><defs><circle id="SVGID_1_" cx="30.8" cy="30.7" r="30.7"/></defs><clipPath id="SVGID_2_"><use overflow="visible" xlink:href="#SVGID_1_"/></clipPath><linearGradient id="SVGID_3_" x1="277.842" x2="331.371" y1="-13.376" y2="-13.376" gradientTransform="matrix(-0.4255 -0.4255 0.7071 -0.7071 158.728 140.6388)" gradientUnits="userSpaceOnUse"><stop offset="0" style="stop-color:#fff;stop-opacity:.05"/><stop offset="1" style="stop-color:#fbfbfb;stop-opacity:0"/></linearGradient><polygon fill="url(#SVGID_3_)" points="31.6 -14.3 54.4 8.5 7.7 55.2 -15.1 32.5" clip-path="url(#SVGID_2_)"/></g><circle cx="31.1" cy="31.3" r="13.9" fill="#D65037"/><g><g><path fill="#FFF" d="M27.4,17.9c0.5-1.8,2.7-3.7,4.7-3.7c0.8,0,1.5,0.4,1.5,1.3c0,0.8-0.6,1.3-1.3,1.3c-0.5,0-0.8-0.3-0.8-0.8 c0-0.5,0.5-0.6,0.5-0.8c0-0.2-0.2-0.3-0.3-0.3c-0.8,0-1.3,2.3-1.5,2.9L27.3,29h3.3v1.3H27l-2.8,11.1c-0.3,1-0.7,1.9-1.4,2.7 c-0.7,0.7-2.3,1.1-3.3,1.1c-0.8,0-1.5-0.4-1.5-1.3c0-0.8,0.5-1.4,1.3-1.4c0.5,0,0.8,0.3,0.8,0.8s-0.5,0.6-0.5,0.8 c0,0.2,0.2,0.3,0.3,0.3c0.8,0,1.4-2.3,1.5-2.9l2.8-11.3H21V29h3.6L27.4,17.9z"/><path fill="#FFF" d="M29.1,37.9c0-3.3,2.1-5.6,4-6.7l0.6,0.9c-1.8,1.1-3.4,3-3.4,5.8c0,2.8,1.6,4.7,3.4,5.8l-0.6,0.9 C31.2,43.6,29.1,41.2,29.1,37.9z"/><path fill="#FFF" d="M33.8,40.5h0.8l1.9-2l-1.8-1.9h-0.8v-1h2.8v0.9h-0.8l1.2,1.4l1.2-1.4h-0.8v-0.9h2.7v1h-0.8l-1.7,1.9l1.9,2 h0.8v1h-2.8v-0.9h0.8L37,39l-1.3,1.5h0.8v0.9h-2.7V40.5z"/><path fill="#FFF" d="M40.5,43.8c1.8-1.1,3.4-3,3.4-5.8c0-2.8-1.6-4.7-3.4-5.8l0.6-0.9c1.9,1.1,4,3.4,4,6.7c0,3.3-2.1,5.6-4,6.7 L40.5,43.8z"/></g></g></svg>