<svg xmlns="http://www.w3.org/2000/svg" xmlns:xlink="http://www.w3.org/1999/xlink" id="Layer_1" x="0" y="0" enable-background="new 0 0 46.3 46.3" version="1.1" viewBox="0 0 46.3 46.3" xml:space="preserve"><switch><g><g><circle cx="23.4" cy="23.3" r="17.1" fill="#CCC"/><g><g><path fill="#555B5B" fill-rule="evenodd" d="M13.8,26.3c-2.1,0-2.7-1.7-2.7-2.9c0-1.2,0.6-2.9,2.7-2.9 c2.1,0,2.7,1.7,2.7,2.9C16.5,24.6,15.9,26.3,13.8,26.3L13.8,26.3z M13.8,21.1c-1.2,0-1.9,1-1.9,2.3c0,1.3,0.7,2.3,1.9,2.3 c1.2,0,1.9-1,1.9-2.3C15.7,22,15,21.1,13.8,21.1L13.8,21.1z M16.9,22.6h0.6v0.5h0c0.1-0.2,0.4-0.6,1.1-0.6c1,0,1.6,0.8,1.6,1.8 c0,0.9-0.5,2-1.7,2c-0.5,0-0.8-0.2-1-0.5h0v1.8h-0.6V22.6L16.9,22.6z M18.4,25.7c0.7,0,1.1-0.6,1.1-1.4c0-0.5-0.2-1.4-1.1-1.4 c-0.9,0-1,0.9-1,1.5C17.5,25.5,18.1,25.7,18.4,25.7L18.4,25.7z M23.8,25c0,0.2-0.2,0.7-0.6,1c-0.2,0.1-0.4,0.2-1,0.2 c-1,0-1.6-0.8-1.6-1.8c0-1.1,0.5-2,1.7-2c1,0,1.5,0.8,1.5,2.1h-2.6c0,0.7,0.3,1.2,1,1.2c0.6,0,0.9-0.4,0.9-0.7H23.8L23.8,25z M23.2,24.1c0-0.6-0.3-1.1-1-1.1c-0.6,0-1,0.5-1,1.1H23.2L23.2,24.1z M27.2,26.1h-0.6v-2.2c0-0.6-0.2-0.9-0.8-0.9 c-0.3,0-0.9,0.2-0.9,1.2v2h-0.6v-3.6h0.6v0.5h0c0.1-0.2,0.5-0.6,1.1-0.6c0.6,0,1.3,0.2,1.3,1.2V26.1L27.2,26.1z" clip-rule="evenodd"/><path fill="#555B5B" fill-rule="evenodd" d="M30.7,23.1h2.3v3h-0.8l-0.1-0.7c-0.3,0.3-0.7,0.9-1.7,0.9 c-1.3,0-2.6-1-2.6-2.9c0-1.5,0.9-3,2.7-3c1.7,0,2.4,1.1,2.5,1.9h-1.2c0-0.2-0.4-0.9-1.2-0.9c-0.8,0-1.6,0.6-1.6,2 c0,1.5,0.8,1.9,1.6,1.9c0.3,0,1.1-0.1,1.4-1.2h-1.3V23.1L30.7,23.1z" clip-rule="evenodd"/><path fill="#555B5B" fill-rule="evenodd" d="M7.5,23.1c0,3.4,5.2,6.7,11.8,6.7c6.6,0,10-3.1,10-3.1 c0.5-0.5-0.3-0.2-0.3-0.2c-1.2,0.8-4.7,2.4-10,1.7c-5.7-0.7-7.5-2.3-7.8-3.9L11,23.4c0-0.6,0.1-1.3,0.4-1.9 c0.6-1.2,2.3-3,7.6-3.5c5.4-0.5,8.8,1,10,1.7c0,0,0.8,0.3,0.3-0.2c0,0-3.4-3.1-10-3.1C12.7,16.4,7.5,19.8,7.5,23.1L7.5,23.1z" clip-rule="evenodd"/><polygon fill="#555B5B" fill-rule="evenodd" points="35 25.1 37.8 25.1 37.8 26.1 33.8 26.1 33.8 20.5 35 20.5 35 25.1" clip-rule="evenodd"/><path fill="#555B5B" fill-rule="evenodd" d="M38.4,25.7L38.4,25.7l-0.2,0.1v0.4h-0.1v-0.4h-0.2v-0.1H38.4 L38.4,25.7z M38.6,25.7l0.1,0.4h0l0.1-0.4h0.1v0.5h-0.1v-0.4h0l-0.1,0.4h0L38.6,25.7L38.6,25.7l0,0.5h-0.1L38.6,25.7L38.6,25.7 L38.6,25.7z" clip-rule="evenodd"/></g></g><g><defs><path id="SVGID_1_" d="M23.2,46.3l-0.4,0c-6.2-0.1-12-2.6-16.3-7C2.2,34.8-0.1,29,0,22.8C0.2,10.2,10.6,0,23.2,0l0.4,0 c12.8,0.2,23,10.7,22.8,23.5C46.1,36,35.8,46.3,23.2,46.3z"/></defs><clipPath id="SVGID_2_"><use overflow="visible" xlink:href="#SVGID_1_"/></clipPath><g clip-path="url(#SVGID_2_)"><path fill="#E6E6E6" d="M23.2,46.3l-0.4,0c-6.2-0.1-12-2.6-16.3-7C2.2,34.8-0.1,29,0,22.8C0.2,10.2,10.6,0,23.2,0l0.4,0 c12.8,0.2,23,10.7,22.8,23.5C46.1,36,35.8,46.3,23.2,46.3z M23.2,4.2c-10.3,0-18.8,8.3-18.9,18.6c-0.1,5,1.8,9.8,5.3,13.4 c3.5,3.6,8.2,5.7,13.3,5.7l0.3,0c10.3,0,18.8-8.3,18.9-18.6c0.2-10.4-8.2-19-18.6-19.2L23.2,4.2z"/></g><linearGradient id="SVGID_3_" x1="363.996" x2="403.681" y1="-157.382" y2="-157.382" gradientTransform="matrix(-0.4357 -0.4357 0.7071 -0.7071 293.5329 70.6737)" gradientUnits="userSpaceOnUse"><stop offset="0" style="stop-color:#fff;stop-opacity:.2"/><stop offset="1" style="stop-color:#fbfbfb;stop-opacity:0"/></linearGradient><polygon fill="url(#SVGID_3_)" points="23.7 -11.3 41 6 6.3 40.7 -11 23.4" clip-path="url(#SVGID_2_)"/></g></g></g></switch></svg>