<svg xmlns="http://www.w3.org/2000/svg" xmlns:xlink="http://www.w3.org/1999/xlink" id="Layer_1" x="0" y="0" enable-background="new 0 0 61.5 61.5" version="1.1" viewBox="0 0 61.5 61.5" xml:space="preserve"><g><g><circle cx="30.7" cy="30.8" r="30.7" fill="#2D3333" fill-rule="evenodd" clip-rule="evenodd"/><circle cx="30.7" cy="30.8" r="25.1" fill="#A41C12"/></g><g><path fill="#A53B2D" d="M40.9,33.4H18.3c-0.5,0-1-0.4-1-1v-16c0-0.5,0.4-1,1-1h22.6c0.5,0,1,0.4,1,1v16 C41.9,33,41.4,33.4,40.9,33.4z"/><rect width="21" height="13.6" x="19.1" y="17.7" fill="#491615"/><path fill="#491615" d="M45.9,40.6H13.6c-0.3,0-0.6-0.3-0.6-0.6v-1h32.8c0.2,0,0.3,0.1,0.3,0.3v1C46.2,40.5,46,40.6,45.9,40.6z"/><polygon fill="#A53B2D" points="46.1 39 13.1 39 17.3 33.3 41.9 33.3"/><rect width="24.4" height=".7" x="17.4" y="32.6" fill="#6D261D"/><g><polygon fill="#FFF" points="26.7 28 30.8 21 34.8 28"/><polygon fill="#FFF" points="24.3 28 27.8 22.1 31.2 28"/></g><g><g><path fill="#6D261D" d="M33.9,42.1V28.2c0-1.3,1-2.3,2.3-2.3h8.3c1.3,0,2.3,1,2.3,2.3v13.9c0,1.3-1,2.3-2.3,2.3h-8.3 C34.9,44.4,33.9,43.4,33.9,42.1z"/><path fill="#491615" d="M34.9,39.1v-10c0-1.2,1-2.3,2.3-2.3h6.2c1.2,0,2.3,1,2.3,2.3v10c0,1.2-1,2.3-2.3,2.3h-6.2 C35.9,41.4,34.9,40.4,34.9,39.1z"/><rect width="1.5" height="1.4" x="39.6" y="42.2" fill="#FFF"/></g><g><polygon fill="#D65037" points="38.7 35.6 41 31.6 43.3 35.6"/><polygon fill="#D65037" points="37.3 35.6 39.3 32.2 41.2 35.6"/></g></g></g><g><defs><circle id="SVGID_1_" cx="30.8" cy="30.7" r="30.7"/></defs><clipPath id="SVGID_2_"><use overflow="visible" xlink:href="#SVGID_1_"/></clipPath><linearGradient id="SVGID_3_" x1="292.803" x2="346.332" y1="-18.24" y2="-18.24" gradientTransform="matrix(-0.4255 -0.4255 0.7071 -0.7071 168.5332 143.5657)" gradientUnits="userSpaceOnUse"><stop offset="0" style="stop-color:#fff;stop-opacity:.05"/><stop offset="1" style="stop-color:#fbfbfb;stop-opacity:0"/></linearGradient><polygon fill="url(#SVGID_3_)" points="31.6 -14.3 54.4 8.5 7.7 55.2 -15.1 32.5" clip-path="url(#SVGID_2_)"/></g></g></svg>